<?xml version="1.0" standalone="no"?>
<!DOCTYPE svg PUBLIC "-//W3C//DTD SVG 20010904//EN"
 "http://www.w3.org/TR/2001/REC-SVG-20010904/DTD/svg10.dtd">
<svg version="1.0" xmlns="http://www.w3.org/2000/svg"
 width="700.000000pt" height="700.000000pt" viewBox="0 0 700.000000 700.000000"
 preserveAspectRatio="xMidYMid meet">
<metadata>
Created by potrace 1.11, written by Peter Selinger 2001-2013
</metadata>
<g transform="translate(0.000000,700.000000) scale(0.100000,-0.100000)"
fill="#000000" stroke="none">
<path d="M2198 6245 c-2 -1 -35 -5 -73 -8 -89 -8 -203 -45 -286 -93 -35 -21
-66 -40 -69 -43 -3 -3 -25 -24 -50 -45 -92 -81 -194 -243 -215 -343 -6 -30 -8
-32 -38 -25 -18 4 -75 7 -128 6 -85 0 -103 -4 -163 -32 -42 -20 -87 -52 -123
-87 -51 -52 -59 -56 -90 -50 -39 7 -158 8 -192 1 -217 -46 -381 -198 -435
-406 -22 -83 -15 -239 14 -315 61 -159 179 -275 346 -338 l59 -22 932 -1 c513
0 934 -2 937 -5 2 -2 -10 -34 -28 -70 -17 -36 -33 -72 -35 -80 -3 -8 -17 -50
-32 -94 -15 -44 -28 -90 -28 -102 -1 -28 9 -28 -114 -2 -83 17 -125 20 -222
16 -188 -8 -336 -56 -487 -158 -56 -39 -198 -170 -198 -184 0 -3 -8 -15 -19
-26 -18 -20 -21 -20 -102 -5 -135 24 -369 16 -491 -17 -427 -113 -744 -441
-844 -872 -29 -121 -26 -388 4 -510 107 -428 421 -745 850 -857 l117 -31 706
-2 c389 -1 710 -5 716 -8 5 -3 10 -23 11 -44 2 -21 11 -71 22 -111 74 -270
298 -471 575 -515 62 -10 420 -13 1615 -11 l1535 1 85 22 c222 58 417 229 499
437 66 170 60 390 -16 562 -20 46 -22 57 -11 72 7 10 34 48 60 83 133 182 202
401 203 637 0 137 -7 207 -29 290 -56 212 -147 372 -299 525 -217 218 -493
335 -802 340 -76 1 -273 -26 -317 -44 l-28 -11 -1 58 c-2 225 -52 450 -144
645 -19 40 -68 119 -110 177 -42 58 -93 130 -115 161 -125 180 -404 375 -664
464 -84 28 -219 60 -307 72 -107 14 -397 7 -449 -11 -8 -3 -28 -7 -45 -10 -16
-2 -48 -7 -70 -11 -40 -6 -40 -6 -67 42 -28 51 -111 138 -168 176 -43 28 -130
63 -190 76 -54 12 -195 7 -232 -8 -26 -10 -28 -9 -29 17 -10 324 -207 592
-507 691 -55 18 -87 24 -194 35 -15 2 -29 2 -30 1z"/>
</g>
</svg>
